<svg width="56" height="56" viewBox="0 0 56 56" xmlns="http://www.w3.org/2000/svg">
  <rect width="56" height="56" rx="12" fill="#100d20"/>
  <g transform="translate(28,28)">

    <!-- 4 orbital rings at 0°/45°/90°/135° -->
    <ellipse rx="22" ry="9" fill="none" stroke="#c06dc4" stroke-width="1.9" opacity="0.92"/>
    <ellipse rx="22" ry="9" fill="none" stroke="#c06dc4" stroke-width="1.9" opacity="0.92" transform="rotate(45)"/>
    <ellipse rx="22" ry="9" fill="none" stroke="#c06dc4" stroke-width="1.9" opacity="0.92" transform="rotate(90)"/>
    <ellipse rx="22" ry="9" fill="none" stroke="#c06dc4" stroke-width="1.9" opacity="0.92" transform="rotate(135)"/>

    <!-- Large tip dots: ends of the 0°/90° ellipses -->
    <circle cx="22"  cy="0"   r="2.6" fill="#e879c0"/>
    <circle cx="-22" cy="0"   r="2.6" fill="#e879c0"/>
    <circle cx="0"   cy="22"  r="2.6" fill="#e879c0"/>
    <circle cx="0"   cy="-22" r="2.6" fill="#e879c0"/>
    <!-- Large tip dots: ends of the 45°/135° ellipses -->
    <circle cx="15.6"  cy="15.6"  r="2.6" fill="#e879c0"/>
    <circle cx="-15.6" cy="-15.6" r="2.6" fill="#e879c0"/>
    <circle cx="15.6"  cy="-15.6" r="2.6" fill="#e879c0"/>
    <circle cx="-15.6" cy="15.6"  r="2.6" fill="#e879c0"/>

    <!-- Smaller accent dots in the spaces between orbits -->
    <circle cx="10"  cy="-6"  r="1.2" fill="#e879c0" opacity="0.55"/>
    <circle cx="-10" cy="6"   r="1.2" fill="#e879c0" opacity="0.55"/>
    <circle cx="6"   cy="10"  r="1.2" fill="#e879c0" opacity="0.55"/>
    <circle cx="-6"  cy="-10" r="1.2" fill="#e879c0" opacity="0.55"/>

    <!-- Inner sanctum circle -->
    <circle cx="0" cy="0" r="8.5" fill="#100d20" stroke="#c06dc4" stroke-width="1.0" opacity="0.85"/>

    <!-- ══ Yantra: two interlocked curved teardrops — large N/S circles, curved diamond, E/W scroll hooks ══ -->
    <!-- N circle (large, prominent) -->
    <circle cx="0" cy="-6.8" r="1.3" fill="none" stroke="#d4a644" stroke-width="1.0"/>
    <!-- N-bottom → W crossing (top-left diamond arm, curved) -->
    <path d="M 0,-5.5 C -1.6,-3.4 -2.9,-1.7 -3.8,0" fill="none" stroke="#d4a644" stroke-width="1.0" stroke-linecap="round"/>
    <!-- N-bottom → E crossing (top-right diamond arm, curved) -->
    <path d="M 0,-5.5 C 1.6,-3.4 2.9,-1.7 3.8,0" fill="none" stroke="#d4a644" stroke-width="1.0" stroke-linecap="round"/>
    <!-- W crossing → S-top (bottom-left diamond arm, curved) -->
    <path d="M -3.8,0 C -2.9,1.7 -1.6,3.4 0,5.5" fill="none" stroke="#d4a644" stroke-width="1.0" stroke-linecap="round"/>
    <!-- E crossing → S-top (bottom-right diamond arm, curved) -->
    <path d="M 3.8,0 C 2.9,1.7 1.6,3.4 0,5.5" fill="none" stroke="#d4a644" stroke-width="1.0" stroke-linecap="round"/>
    <!-- S circle (large, prominent) -->
    <circle cx="0" cy="6.8" r="1.3" fill="none" stroke="#d4a644" stroke-width="1.0"/>
    <!-- W scroll hook (from W crossing, curves out and curls back) -->
    <path d="M -3.8,0 C -5.5,-0.3 -7.3,0.2 -7.3,1.5 C -7.3,2.8 -6.2,3.4 -5.2,3.0 C -4.2,2.6 -4.1,1.6 -4.9,1.3"
          fill="none" stroke="#d4a644" stroke-width="1.0" stroke-linecap="round"/>
    <!-- E scroll hook (mirrored) -->
    <path d="M 3.8,0 C 5.5,-0.3 7.3,0.2 7.3,1.5 C 7.3,2.8 6.2,3.4 5.2,3.0 C 4.2,2.6 4.1,1.6 4.9,1.3"
          fill="none" stroke="#d4a644" stroke-width="1.0" stroke-linecap="round"/>
    <!-- Central bindu -->
    <circle cx="0" cy="0" r="0.9" fill="#d4a644"/>

  </g>
</svg>
