<svg width="56" height="56" viewBox="0 0 56 56" xmlns="http://www.w3.org/2000/svg">
  <rect width="56" height="56" rx="12" fill="#100d20"/>
  <g transform="translate(28,28)">

    <!-- 4 orbital rings at 0°/45°/90°/135° -->
    <ellipse rx="22" ry="9" fill="none" stroke="#c06dc4" stroke-width="1.9" opacity="0.92"/>
    <ellipse rx="22" ry="9" fill="none" stroke="#c06dc4" stroke-width="1.9" opacity="0.92" transform="rotate(45)"/>
    <ellipse rx="22" ry="9" fill="none" stroke="#c06dc4" stroke-width="1.9" opacity="0.92" transform="rotate(90)"/>
    <ellipse rx="22" ry="9" fill="none" stroke="#c06dc4" stroke-width="1.9" opacity="0.92" transform="rotate(135)"/>

    <!-- Large tip dots: ends of the 0°/90° ellipses -->
    <circle cx="22"  cy="0"   r="2.6" fill="#e879c0"/>
    <circle cx="-22" cy="0"   r="2.6" fill="#e879c0"/>
    <circle cx="0"   cy="22"  r="2.6" fill="#e879c0"/>
    <circle cx="0"   cy="-22" r="2.6" fill="#e879c0"/>
    <!-- Large tip dots: ends of the 45°/135° ellipses -->
    <circle cx="15.6"  cy="15.6"  r="2.6" fill="#e879c0"/>
    <circle cx="-15.6" cy="-15.6" r="2.6" fill="#e879c0"/>
    <circle cx="15.6"  cy="-15.6" r="2.6" fill="#e879c0"/>
    <circle cx="-15.6" cy="15.6"  r="2.6" fill="#e879c0"/>

    <!-- Smaller accent dots in the spaces between orbits -->
    <circle cx="10"  cy="-6"  r="1.2" fill="#e879c0" opacity="0.55"/>
    <circle cx="-10" cy="6"   r="1.2" fill="#e879c0" opacity="0.55"/>
    <circle cx="6"   cy="10"  r="1.2" fill="#e879c0" opacity="0.55"/>
    <circle cx="-6"  cy="-10" r="1.2" fill="#e879c0" opacity="0.55"/>

    <!-- Inner sanctum circle -->
    <circle cx="0" cy="0" r="8.5" fill="#100d20" stroke="#c06dc4" stroke-width="1.0" opacity="0.85"/>

    <!-- ══ Yantra: open N/S rings, curved diamond arms, four closed teardrop scroll loops ══ -->
    <!-- N open ring (large, prominent — teardrop apex) -->
    <circle cx="0" cy="-6.5" r="1.35" fill="#100d20" stroke="#d4a644" stroke-width="1.2"/>
    <!-- NW arm: N-bottom to left crossing -->
    <path d="M 0,-5.15 C -1.0,-3.8 -2.5,-2.0 -3.5,0" fill="none" stroke="#d4a644" stroke-width="1.2" stroke-linecap="round"/>
    <!-- NE arm: N-bottom to right crossing -->
    <path d="M 0,-5.15 C 1.0,-3.8 2.5,-2.0 3.5,0" fill="none" stroke="#d4a644" stroke-width="1.2" stroke-linecap="round"/>
    <!-- SW arm: left crossing to S-top -->
    <path d="M -3.5,0 C -2.5,2.0 -1.0,3.8 0,5.15" fill="none" stroke="#d4a644" stroke-width="1.2" stroke-linecap="round"/>
    <!-- SE arm: right crossing to S-top -->
    <path d="M 3.5,0 C 2.5,2.0 1.0,3.8 0,5.15" fill="none" stroke="#d4a644" stroke-width="1.2" stroke-linecap="round"/>
    <!-- S open ring (large, prominent — teardrop base) -->
    <circle cx="0" cy="6.5" r="1.35" fill="#100d20" stroke="#d4a644" stroke-width="1.2"/>
    <!-- W-upper scroll: closed teardrop loop extending NW from left crossing -->
    <path d="M -3.5,0 C -4.5,-1.0 -6.0,-2.5 -6.0,-4.0 C -6.0,-5.0 -4.5,-4.8 -4.0,-3.5 C -4.2,-2.0 -3.8,-0.8 -3.5,0 Z"
          fill="none" stroke="#d4a644" stroke-width="1.2" stroke-linejoin="round"/>
    <!-- W-lower scroll: closed teardrop loop extending SW from left crossing -->
    <path d="M -3.5,0 C -4.5,1.0 -6.0,2.5 -6.0,4.0 C -6.0,5.0 -4.5,4.8 -4.0,3.5 C -4.2,2.0 -3.8,0.8 -3.5,0 Z"
          fill="none" stroke="#d4a644" stroke-width="1.2" stroke-linejoin="round"/>
    <!-- E-upper scroll: closed teardrop loop extending NE from right crossing -->
    <path d="M 3.5,0 C 4.5,-1.0 6.0,-2.5 6.0,-4.0 C 6.0,-5.0 4.5,-4.8 4.0,-3.5 C 4.2,-2.0 3.8,-0.8 3.5,0 Z"
          fill="none" stroke="#d4a644" stroke-width="1.2" stroke-linejoin="round"/>
    <!-- E-lower scroll: closed teardrop loop extending SE from right crossing -->
    <path d="M 3.5,0 C 4.5,1.0 6.0,2.5 6.0,4.0 C 6.0,5.0 4.5,4.8 4.0,3.5 C 4.2,2.0 3.8,0.8 3.5,0 Z"
          fill="none" stroke="#d4a644" stroke-width="1.2" stroke-linejoin="round"/>

  </g>
</svg>
