<svg width="56" height="56" viewBox="0 0 56 56" xmlns="http://www.w3.org/2000/svg">
  <rect width="56" height="56" rx="12" fill="#100d20"/>
  <g transform="translate(28,28)">

    <!-- 4 orbital rings at 0°/45°/90°/135° -->
    <ellipse rx="22" ry="9" fill="none" stroke="#c06dc4" stroke-width="1.9" opacity="0.92"/>
    <ellipse rx="22" ry="9" fill="none" stroke="#c06dc4" stroke-width="1.9" opacity="0.92" transform="rotate(45)"/>
    <ellipse rx="22" ry="9" fill="none" stroke="#c06dc4" stroke-width="1.9" opacity="0.92" transform="rotate(90)"/>
    <ellipse rx="22" ry="9" fill="none" stroke="#c06dc4" stroke-width="1.9" opacity="0.92" transform="rotate(135)"/>

    <!-- Large tip dots: ends of the 0°/90° ellipses -->
    <circle cx="22"  cy="0"   r="2.6" fill="#e879c0"/>
    <circle cx="-22" cy="0"   r="2.6" fill="#e879c0"/>
    <circle cx="0"   cy="22"  r="2.6" fill="#e879c0"/>
    <circle cx="0"   cy="-22" r="2.6" fill="#e879c0"/>
    <!-- Large tip dots: ends of the 45°/135° ellipses -->
    <circle cx="15.6"  cy="15.6"  r="2.6" fill="#e879c0"/>
    <circle cx="-15.6" cy="-15.6" r="2.6" fill="#e879c0"/>
    <circle cx="15.6"  cy="-15.6" r="2.6" fill="#e879c0"/>
    <circle cx="-15.6" cy="15.6"  r="2.6" fill="#e879c0"/>

    <!-- Smaller accent dots in the spaces between orbits -->
    <circle cx="10"  cy="-6"  r="1.2" fill="#e879c0" opacity="0.55"/>
    <circle cx="-10" cy="6"   r="1.2" fill="#e879c0" opacity="0.55"/>
    <circle cx="6"   cy="10"  r="1.2" fill="#e879c0" opacity="0.55"/>
    <circle cx="-6"  cy="-10" r="1.2" fill="#e879c0" opacity="0.55"/>

    <!-- Inner sanctum circle -->
    <circle cx="0" cy="0" r="8.5" fill="#100d20" stroke="#c06dc4" stroke-width="1.0" opacity="0.85"/>

    <!-- ══ YANTRA — 4 continuous crossing paths, N/S lasso rings, 4 scroll tip circles ══
         Each path: ring-side → crosses diamond vertex → left/right crossing → scroll tip circle
         Path A (\): N-ring-left → upper-vertex X → right-crossing → E-lower-tip
         Path B (/): N-ring-right → upper-vertex X → left-crossing  → W-lower-tip
         Path C (\): S-ring-right → lower-vertex X → left-crossing  → W-upper-tip
         Path D (/): S-ring-left  → lower-vertex X → right-crossing → E-upper-tip        -->

    <!-- Path A: N-left → right-crossing → E-lower -->
    <path d="M -1.0,-5.5 C 0.5,-4.5 2.0,-2.0 3.5,0 C 4.5,0.8 5.5,2.0 6.0,3.2"
          fill="none" stroke="#d4a644" stroke-width="1.2" stroke-linecap="round"/>
    <!-- Path B: N-right → left-crossing → W-lower -->
    <path d="M 1.0,-5.5 C -0.5,-4.5 -2.0,-2.0 -3.5,0 C -4.5,0.8 -5.5,2.0 -6.0,3.2"
          fill="none" stroke="#d4a644" stroke-width="1.2" stroke-linecap="round"/>
    <!-- Path C: S-right → left-crossing → W-upper -->
    <path d="M 1.0,5.5 C -0.5,4.5 -2.0,2.0 -3.5,0 C -4.5,-0.8 -5.5,-2.0 -6.0,-3.2"
          fill="none" stroke="#d4a644" stroke-width="1.2" stroke-linecap="round"/>
    <!-- Path D: S-left → right-crossing → E-upper -->
    <path d="M -1.0,5.5 C 0.5,4.5 2.0,2.0 3.5,0 C 4.5,-0.8 5.5,-2.0 6.0,-3.2"
          fill="none" stroke="#d4a644" stroke-width="1.2" stroke-linecap="round"/>

    <!-- N lasso ring (drawn last — covers path start points) -->
    <circle cx="0" cy="-6.5" r="1.35" fill="#100d20" stroke="#d4a644" stroke-width="1.2"/>
    <!-- S lasso ring -->
    <circle cx="0" cy="6.5" r="1.35" fill="#100d20" stroke="#d4a644" stroke-width="1.2"/>

    <!-- Scroll tip circles (small open rings at each arm end) -->
    <circle cx="6.0"  cy="3.2"  r="0.75" fill="#100d20" stroke="#d4a644" stroke-width="1.0"/>
    <circle cx="-6.0" cy="3.2"  r="0.75" fill="#100d20" stroke="#d4a644" stroke-width="1.0"/>
    <circle cx="-6.0" cy="-3.2" r="0.75" fill="#100d20" stroke="#d4a644" stroke-width="1.0"/>
    <circle cx="6.0"  cy="-3.2" r="0.75" fill="#100d20" stroke="#d4a644" stroke-width="1.0"/>

  </g>
</svg>
