<svg width="56" height="56" viewBox="0 0 56 56" xmlns="http://www.w3.org/2000/svg">
  <rect width="56" height="56" rx="12" fill="#100d20"/>
  <g transform="translate(28,28)">
    <ellipse rx="22" ry="9" fill="none" stroke="#c06dc4" stroke-width="1.6" opacity="0.95"/>
    <ellipse rx="22" ry="9" fill="none" stroke="#c06dc4" stroke-width="1.6" opacity="0.95" transform="rotate(45)"/>
    <ellipse rx="22" ry="9" fill="none" stroke="#c06dc4" stroke-width="1.6" opacity="0.95" transform="rotate(90)"/>
    <ellipse rx="22" ry="9" fill="none" stroke="#c06dc4" stroke-width="1.6" opacity="0.95" transform="rotate(135)"/>
    <circle cx="22" cy="0" r="2.2" fill="#e879c0" opacity="0.9"/>
    <circle cx="-22" cy="0" r="2.2" fill="#e879c0" opacity="0.9"/>
    <circle cx="0" cy="22" r="2.2" fill="#e879c0" opacity="0.9"/>
    <circle cx="0" cy="-22" r="2.2" fill="#e879c0" opacity="0.9"/>
    <circle cx="15.5" cy="15.5" r="1.8" fill="#e879c0" opacity="0.8"/>
    <circle cx="-15.5" cy="-15.5" r="1.8" fill="#e879c0" opacity="0.8"/>
    <circle cx="15.5" cy="-15.5" r="1.8" fill="#e879c0" opacity="0.8"/>
    <circle cx="-15.5" cy="15.5" r="1.8" fill="#e879c0" opacity="0.8"/>
    <circle cx="11" cy="-6" r="1.3" fill="#e879c0" opacity="0.7"/>
    <circle cx="-11" cy="6" r="1.3" fill="#e879c0" opacity="0.7"/>
    <circle cx="6" cy="11" r="1.3" fill="#e879c0" opacity="0.7"/>
    <circle cx="-6" cy="-11" r="1.3" fill="#e879c0" opacity="0.7"/>
    <circle cx="0" cy="0" r="8" fill="#100d20" stroke="#c06dc4" stroke-width="1.2"/>
    <path d="M0,-5.5 L0,5.5 M-5.5,0 L5.5,0 M-3.5,-3.5 L3.5,3.5 M3.5,-3.5 L-3.5,3.5" stroke="#d4a644" stroke-width="0.9" opacity="0.9"/>
    <circle cx="0" cy="0" r="2.2" fill="#d4a644"/>
    <circle cx="0" cy="-4.5" r="1.3" fill="#d4a644" opacity="0.85"/>
    <circle cx="0" cy="4.5" r="1.3" fill="#d4a644" opacity="0.85"/>
    <circle cx="-4.5" cy="0" r="1.3" fill="#d4a644" opacity="0.85"/>
    <circle cx="4.5" cy="0" r="1.3" fill="#d4a644" opacity="0.85"/>
  </g>
</svg>
