<svg width="56" height="56" viewBox="0 0 56 56" xmlns="http://www.w3.org/2000/svg">
  <rect width="56" height="56" rx="12" fill="#100d20"/>
  <g transform="translate(28,28)">

    <!-- 4 orbital rings at 0°/45°/90°/135° -->
    <ellipse rx="22" ry="9" fill="none" stroke="#c06dc4" stroke-width="1.9" opacity="0.92"/>
    <ellipse rx="22" ry="9" fill="none" stroke="#c06dc4" stroke-width="1.9" opacity="0.92" transform="rotate(45)"/>
    <ellipse rx="22" ry="9" fill="none" stroke="#c06dc4" stroke-width="1.9" opacity="0.92" transform="rotate(90)"/>
    <ellipse rx="22" ry="9" fill="none" stroke="#c06dc4" stroke-width="1.9" opacity="0.92" transform="rotate(135)"/>

    <!-- Large tip dots: ends of the 0°/90° ellipses -->
    <circle cx="22"  cy="0"   r="2.6" fill="#e879c0"/>
    <circle cx="-22" cy="0"   r="2.6" fill="#e879c0"/>
    <circle cx="0"   cy="22"  r="2.6" fill="#e879c0"/>
    <circle cx="0"   cy="-22" r="2.6" fill="#e879c0"/>
    <!-- Large tip dots: ends of the 45°/135° ellipses -->
    <circle cx="15.6"  cy="15.6"  r="2.6" fill="#e879c0"/>
    <circle cx="-15.6" cy="-15.6" r="2.6" fill="#e879c0"/>
    <circle cx="15.6"  cy="-15.6" r="2.6" fill="#e879c0"/>
    <circle cx="-15.6" cy="15.6"  r="2.6" fill="#e879c0"/>

    <!-- Smaller accent dots in the spaces between orbits -->
    <circle cx="10"  cy="-6"  r="1.2" fill="#e879c0" opacity="0.55"/>
    <circle cx="-10" cy="6"   r="1.2" fill="#e879c0" opacity="0.55"/>
    <circle cx="6"   cy="10"  r="1.2" fill="#e879c0" opacity="0.55"/>
    <circle cx="-6"  cy="-10" r="1.2" fill="#e879c0" opacity="0.55"/>

    <!-- Inner sanctum circle -->
    <circle cx="0" cy="0" r="8.5" fill="#100d20" stroke="#c06dc4" stroke-width="1.0" opacity="0.85"/>

    <!-- ══ Soundarya Lahari chaturdala yantra ══
         4 teardrop petals: rounded head outward, pointed base at center diamond -->
    <!-- Top petal -->
    <path d="M 0,-2 C -1.9,-2.4 -2.6,-5.6 0,-6.6 C 2.6,-5.6 1.9,-2.4 0,-2 Z" fill="#d4a644"/>
    <!-- Bottom petal -->
    <path d="M 0,2 C -1.9,2.4 -2.6,5.6 0,6.6 C 2.6,5.6 1.9,2.4 0,2 Z" fill="#d4a644"/>
    <!-- Left petal -->
    <path d="M -2,0 C -2.4,-1.9 -5.6,-2.6 -6.6,0 C -5.6,2.6 -2.4,1.9 -2,0 Z" fill="#d4a644"/>
    <!-- Right petal -->
    <path d="M 2,0 C 2.4,-1.9 5.6,-2.6 6.6,0 C 5.6,2.6 2.4,1.9 2,0 Z" fill="#d4a644"/>

    <!-- Central diamond (where the four petals meet) -->
    <polygon points="0,-2.5 2.5,0 0,2.5 -2.5,0" fill="#d4a644"/>

    <!-- Four corner bindus (at diagonal positions, between petals) -->
    <circle cx="3.0"  cy="-3.0" r="0.68" fill="#d4a644" opacity="0.88"/>
    <circle cx="-3.0" cy="-3.0" r="0.68" fill="#d4a644" opacity="0.88"/>
    <circle cx="3.0"  cy="3.0"  r="0.68" fill="#d4a644" opacity="0.88"/>
    <circle cx="-3.0" cy="3.0"  r="0.68" fill="#d4a644" opacity="0.88"/>

    <!-- Central bindu (dark dot in centre of diamond) -->
    <circle cx="0" cy="0" r="0.95" fill="#100d20"/>

  </g>
</svg>
